<?xml version="1.0" encoding="utf-8"?>
<!-- Generator: Adobe Illustrator 16.0.0, SVG Export Plug-In . SVG Version: 6.00 Build 0)  -->
<!DOCTYPE svg PUBLIC "-//W3C//DTD SVG 1.1//EN" "http://www.w3.org/Graphics/SVG/1.1/DTD/svg11.dtd">
<svg version="1.1" id="Layer_1" xmlns="http://www.w3.org/2000/svg" xmlns:xlink="http://www.w3.org/1999/xlink" x="0px" y="0px"
	 width="1024px" height="9.542px" viewBox="0 0.3 1024 9.542" enable-background="new 0 0.3 1024 9.542" xml:space="preserve">
<g>
	<rect x="1.551" y="1.705" fill="#565656" width="6.729" height="6.731"/>
	<rect x="10.94" y="1.705" fill="#565656" width="6.732" height="6.731"/>
	<rect x="20.331" y="1.705" fill="#565656" width="6.729" height="6.731"/>
	<rect x="29.72" y="1.705" fill="#565656" width="6.731" height="6.731"/>
	<rect x="39.111" y="1.705" fill="#565656" width="6.732" height="6.731"/>
	<rect x="48.503" y="1.705" fill="#565656" width="6.729" height="6.731"/>
	<rect x="57.893" y="1.705" fill="#565656" width="6.731" height="6.731"/>
	<rect x="67.283" y="1.705" fill="#565656" width="6.731" height="6.731"/>
	<rect x="76.675" y="1.705" fill="#565656" width="6.729" height="6.731"/>
	<rect x="86.064" y="1.705" fill="#565656" width="6.733" height="6.731"/>
	<rect x="95.455" y="1.705" fill="#565656" width="6.729" height="6.731"/>
	<rect x="104.845" y="1.705" fill="#565656" width="6.732" height="6.731"/>
	<rect x="114.235" y="1.705" fill="#565656" width="6.734" height="6.731"/>
	<rect x="123.626" y="1.705" fill="#565656" width="6.731" height="6.731"/>
	<rect x="133.016" y="1.705" fill="#565656" width="6.732" height="6.731"/>
	<rect x="142.406" y="1.705" fill="#565656" width="6.733" height="6.731"/>
	<rect x="151.797" y="1.705" fill="#565656" width="6.73" height="6.731"/>
	<rect x="161.187" y="1.705" fill="#565656" width="6.734" height="6.731"/>
	<rect x="170.577" y="1.705" fill="#565656" width="6.733" height="6.731"/>
	<rect x="179.969" y="1.705" fill="#565656" width="6.732" height="6.731"/>
	<rect x="189.359" y="1.705" fill="#565656" width="6.733" height="6.731"/>
	<rect x="198.749" y="1.705" fill="#565656" width="6.732" height="6.731"/>
	<rect x="208.14" y="1.705" fill="#565656" width="6.731" height="6.731"/>
	<rect x="217.53" y="1.705" fill="#565656" width="6.733" height="6.731"/>
	<rect x="226.922" y="1.705" fill="#565656" width="6.73" height="6.731"/>
	<rect x="236.311" y="1.705" fill="#565656" width="6.733" height="6.731"/>
	<rect x="245.701" y="1.705" fill="#565656" width="6.732" height="6.731"/>
	<rect x="255.093" y="1.705" fill="#565656" width="6.732" height="6.731"/>
	<rect x="264.482" y="1.705" fill="#565656" width="6.733" height="6.731"/>
	<rect x="273.873" y="1.705" fill="#565656" width="6.731" height="6.731"/>
	<rect x="283.263" y="1.705" fill="#565656" width="6.733" height="6.731"/>
	<rect x="292.654" y="1.705" fill="#565656" width="6.733" height="6.731"/>
	<rect x="302.044" y="1.705" fill="#565656" width="6.731" height="6.731"/>
	<rect x="311.435" y="1.705" fill="#565656" width="6.733" height="6.731"/>
	<rect x="320.823" y="1.705" fill="#565656" width="6.732" height="6.731"/>
	<rect x="330.213" y="1.705" fill="#565656" width="6.731" height="6.731"/>
	<rect x="339.606" y="1.705" fill="#565656" width="6.73" height="6.731"/>
	<rect x="348.993" y="1.705" fill="#565656" width="6.732" height="6.731"/>
	<rect x="358.386" y="1.705" fill="#565656" width="6.73" height="6.731"/>
	<rect x="367.776" y="1.705" fill="#565656" width="6.73" height="6.731"/>
	<rect x="377.168" y="1.705" fill="#565656" width="6.73" height="6.731"/>
	<rect x="386.556" y="1.705" fill="#565656" width="6.729" height="6.731"/>
	<rect x="395.948" y="1.705" fill="#565656" width="6.731" height="6.731"/>
	<rect x="405.336" y="1.705" fill="#565656" width="6.731" height="6.731"/>
	<rect x="414.729" y="1.705" fill="#565656" width="6.732" height="6.731"/>
	<rect x="424.116" y="1.705" fill="#565656" width="6.73" height="6.731"/>
	<rect x="433.51" y="1.705" fill="#565656" width="6.729" height="6.731"/>
	<rect x="442.898" y="1.705" fill="#565656" width="6.731" height="6.731"/>
	<rect x="452.289" y="1.705" fill="#565656" width="6.731" height="6.731"/>
	<rect x="461.679" y="1.705" fill="#565656" width="6.73" height="6.731"/>
	<rect x="471.071" y="1.705" fill="#565656" width="6.733" height="6.731"/>
	<rect x="480.461" y="1.705" fill="#565656" width="6.729" height="6.731"/>
	<rect x="489.853" y="1.705" fill="#565656" width="6.729" height="6.731"/>
	<rect x="499.24" y="1.705" fill="#565656" width="6.732" height="6.731"/>
	<rect x="508.634" y="1.705" fill="#565656" width="6.73" height="6.731"/>
	<rect x="518.024" y="1.705" fill="#565656" width="6.729" height="6.731"/>
	<rect x="527.416" y="1.705" fill="#565656" width="6.729" height="6.731"/>
	<rect x="536.805" y="1.705" fill="#565656" width="6.729" height="6.731"/>
	<rect x="546.196" y="1.705" fill="#565656" width="6.73" height="6.731"/>
	<rect x="555.584" y="1.705" fill="#565656" width="6.732" height="6.731"/>
	<rect x="564.977" y="1.705" fill="#565656" width="6.729" height="6.731"/>
	<rect x="574.365" y="1.705" fill="#565656" width="6.73" height="6.731"/>
	<rect x="583.756" y="1.705" fill="#565656" width="6.73" height="6.731"/>
	<rect x="593.147" y="1.705" fill="#565656" width="6.732" height="6.731"/>
	<rect x="602.537" y="1.705" fill="#565656" width="6.732" height="6.731"/>
	<rect x="611.93" y="1.705" fill="#565656" width="6.729" height="6.731"/>
	<rect x="621.321" y="1.705" fill="#565656" width="6.729" height="6.731"/>
	<rect x="630.705" y="1.705" fill="#565656" width="6.732" height="6.731"/>
	<rect x="640.1" y="1.705" fill="#565656" width="6.729" height="6.731"/>
	<rect x="649.489" y="1.705" fill="#565656" width="6.732" height="6.731"/>
	<rect x="658.879" y="1.705" fill="#565656" width="6.73" height="6.731"/>
	<rect x="668.272" y="1.705" fill="#565656" width="6.73" height="6.731"/>
	<rect x="677.66" y="1.705" fill="#565656" width="6.732" height="6.731"/>
	<rect x="687.051" y="1.705" fill="#565656" width="6.729" height="6.731"/>
	<rect x="696.444" y="1.705" fill="#565656" width="6.729" height="6.731"/>
	<rect x="705.828" y="1.705" fill="#565656" width="6.734" height="6.731"/>
	<rect x="715.225" y="1.705" fill="#565656" width="6.729" height="6.731"/>
	<rect x="724.612" y="1.705" fill="#565656" width="6.734" height="6.731"/>
	<rect x="734.004" y="1.705" fill="#565656" width="6.729" height="6.731"/>
	<rect x="743.395" y="1.705" fill="#565656" width="6.729" height="6.731"/>
	<rect x="752.785" y="1.705" fill="#565656" width="6.73" height="6.731"/>
	<rect x="762.176" y="1.705" fill="#565656" width="6.729" height="6.731"/>
	<rect x="771.569" y="1.705" fill="#565656" width="6.729" height="6.731"/>
	<rect x="780.959" y="1.705" fill="#565656" width="6.727" height="6.731"/>
	<rect x="790.35" y="1.705" fill="#565656" width="6.729" height="6.731"/>
	<rect x="799.739" y="1.705" fill="#565656" width="6.729" height="6.731"/>
	<rect x="809.131" y="1.705" fill="#565656" width="6.729" height="6.731"/>
	<rect x="818.52" y="1.705" fill="#565656" width="6.729" height="6.731"/>
	<rect x="827.908" y="1.705" fill="#565656" width="6.73" height="6.731"/>
	<rect x="837.299" y="1.705" fill="#565656" width="6.729" height="6.731"/>
	<rect x="846.692" y="1.705" fill="#565656" width="6.729" height="6.731"/>
	<rect x="856.078" y="1.705" fill="#565656" width="6.732" height="6.731"/>
	<rect x="865.473" y="1.705" fill="#565656" width="6.729" height="6.731"/>
	<rect x="874.864" y="1.705" fill="#565656" width="6.729" height="6.731"/>
	<rect x="884.252" y="1.705" fill="#565656" width="6.729" height="6.731"/>
	<rect x="893.643" y="1.705" fill="#565656" width="6.729" height="6.731"/>
	<rect x="903.031" y="1.705" fill="#565656" width="6.73" height="6.731"/>
	<rect x="912.422" y="1.705" fill="#565656" width="6.729" height="6.731"/>
	<rect x="921.817" y="1.705" fill="#565656" width="6.729" height="6.731"/>
	<rect x="931.203" y="1.705" fill="#565656" width="6.73" height="6.731"/>
	<rect x="940.596" y="1.705" fill="#565656" width="6.729" height="6.731"/>
	<rect x="949.987" y="1.705" fill="#565656" width="6.729" height="6.731"/>
	<rect x="959.377" y="1.705" fill="#565656" width="6.729" height="6.731"/>
	<rect x="968.766" y="1.705" fill="#565656" width="6.729" height="6.731"/>
	<rect x="978.156" y="1.705" fill="#565656" width="6.73" height="6.731"/>
	<rect x="987.543" y="1.705" fill="#565656" width="6.73" height="6.731"/>
	<rect x="996.94" y="1.705" fill="#565656" width="6.729" height="6.731"/>
	<rect x="1006.328" y="1.705" fill="#565656" width="6.729" height="6.731"/>
	<rect x="1015.721" y="1.705" fill="#565656" width="6.729" height="6.731"/>
</g>
<linearGradient id="SVGID_1_" gradientUnits="userSpaceOnUse" x1="32.7737" y1="1574.2112" x2="1058.1057" y2="1574.2112" gradientTransform="matrix(1 0 0 1 -33.4395 -1569.1406)">
	<stop  offset="0" style="stop-color:#FFFFFF"/>
	<stop  offset="0.0707" style="stop-color:#FFFFFF;stop-opacity:0.8587"/>
	<stop  offset="0.5" style="stop-color:#FFFFFF;stop-opacity:0"/>
	<stop  offset="0.5181" style="stop-color:#FFFFFF;stop-opacity:0.0362"/>
	<stop  offset="0.9295" style="stop-color:#FFFFFF;stop-opacity:0.8589"/>
	<stop  offset="1" style="stop-color:#FFFFFF"/>
</linearGradient>
<rect x="-0.666" y="-0.223" fill="url(#SVGID_1_)" width="1025.332" height="10.589"/>
</svg>
