<?xml version="1.0" encoding="utf-8"?>
<!-- Generator: Adobe Illustrator 16.0.0, SVG Export Plug-In . SVG Version: 6.00 Build 0)  -->
<!DOCTYPE svg PUBLIC "-//W3C//DTD SVG 1.1//EN" "http://www.w3.org/Graphics/SVG/1.1/DTD/svg11.dtd">
<svg version="1.1" id="Layer_1" xmlns="http://www.w3.org/2000/svg" xmlns:xlink="http://www.w3.org/1999/xlink" x="0px" y="0px"
	 width="1024px" height="4.027px" viewBox="0 0 1024 4.027" enable-background="new 0 0 1024 4.027" xml:space="preserve">
<g>
	<rect x="4.255" y="-0.018" fill="#3F90EB" width="4.062" height="4.062"/>
	<rect x="10.302" y="-0.018" fill="#3F90EB" width="4.062" height="4.062"/>
	<rect x="16.35" y="-0.018" fill="#3F90EB" width="4.063" height="4.062"/>
	<rect x="22.397" y="-0.018" fill="#3F90EB" width="4.063" height="4.062"/>
	<rect x="28.445" y="-0.018" fill="#3F90EB" width="4.063" height="4.062"/>
	<rect x="34.493" y="-0.018" fill="#3F90EB" width="4.062" height="4.062"/>
	<rect x="40.54" y="-0.018" fill="#3F90EB" width="4.062" height="4.062"/>
	<rect x="46.587" y="-0.018" fill="#3F90EB" width="4.062" height="4.062"/>
	<rect x="52.635" y="-0.018" fill="#3F90EB" width="4.062" height="4.062"/>
	<rect x="58.683" y="-0.018" fill="#3F90EB" width="4.063" height="4.062"/>
	<rect x="64.73" y="-0.018" fill="#3F90EB" width="4.063" height="4.062"/>
	<rect x="70.777" y="-0.018" fill="#3F90EB" width="4.063" height="4.062"/>
	<rect x="76.825" y="-0.018" fill="#3F90EB" width="4.062" height="4.062"/>
	<rect x="82.873" y="-0.018" fill="#3F90EB" width="4.062" height="4.062"/>
	<rect x="88.92" y="-0.018" fill="#3F90EB" width="4.062" height="4.062"/>
	<rect x="94.967" y="-0.018" fill="#3F90EB" width="4.062" height="4.062"/>
	<rect x="101.015" y="-0.018" fill="#3F90EB" width="4.063" height="4.062"/>
	<rect x="107.063" y="-0.018" fill="#3F90EB" width="4.063" height="4.062"/>
	<rect x="113.11" y="-0.018" fill="#3F90EB" width="4.063" height="4.062"/>
	<rect x="119.158" y="-0.018" fill="#3F90EB" width="4.062" height="4.062"/>
	<rect x="125.205" y="-0.018" fill="#3F90EB" width="4.062" height="4.062"/>
	<rect x="131.252" y="-0.018" fill="#3F90EB" width="4.062" height="4.062"/>
	<rect x="137.3" y="-0.018" fill="#3F90EB" width="4.062" height="4.062"/>
	<rect x="142.967" y="-0.018" fill="#3F90EB" width="4.062" height="4.062"/>
	<rect x="148.634" y="-0.018" fill="#3F90EB" width="4.062" height="4.062"/>
	<rect x="154.301" y="-0.018" fill="#3F90EB" width="4.062" height="4.062"/>
	<rect x="159.968" y="-0.018" fill="#3F90EB" width="4.062" height="4.062"/>
	<rect x="165.635" y="-0.018" fill="#3F90EB" width="4.062" height="4.062"/>
	<rect x="171.302" y="-0.018" fill="#3F90EB" width="4.062" height="4.062"/>
	<rect x="176.969" y="-0.018" fill="#3F90EB" width="4.062" height="4.062"/>
	<rect x="182.636" y="-0.018" fill="#3F90EB" width="4.062" height="4.062"/>
	<rect x="188.303" y="-0.018" fill="#3F90EB" width="4.063" height="4.062"/>
	<rect x="193.97" y="-0.018" fill="#3F90EB" width="4.063" height="4.062"/>
	<rect x="199.637" y="-0.018" fill="#3F90EB" width="4.063" height="4.062"/>
	<rect x="205.304" y="-0.018" fill="#3F90EB" width="4.063" height="4.062"/>
	<rect x="210.971" y="-0.018" fill="#3F90EB" width="4.063" height="4.062"/>
	<rect x="216.638" y="-0.018" fill="#3F90EB" width="4.063" height="4.062"/>
	<rect x="222.305" y="-0.018" fill="#3F90EB" width="4.063" height="4.062"/>
	<rect x="227.972" y="-0.018" fill="#3F90EB" width="4.063" height="4.062"/>
	<rect x="233.639" y="-0.018" fill="#3F90EB" width="4.063" height="4.062"/>
	<rect x="239.306" y="-0.018" fill="#3F90EB" width="4.063" height="4.062"/>
	<rect x="244.973" y="-0.018" fill="#3F90EB" width="4.063" height="4.062"/>
	<rect x="250.64" y="-0.018" fill="#3F90EB" width="4.063" height="4.062"/>
	<rect x="256.307" y="-0.018" fill="#3F90EB" width="4.063" height="4.062"/>
	<rect x="261.974" y="-0.018" fill="#3F90EB" width="4.063" height="4.062"/>
	<rect x="267.641" y="-0.018" fill="#3F90EB" width="4.063" height="4.062"/>
	<rect x="273.308" y="-0.018" fill="#3F90EB" width="4.063" height="4.062"/>
	<rect x="278.975" y="-0.018" fill="#3F90EB" width="4.063" height="4.062"/>
	<rect x="284.642" y="-0.018" fill="#3F90EB" width="4.063" height="4.062"/>
	<rect x="290.309" y="-0.018" fill="#3F90EB" width="4.063" height="4.062"/>
	<rect x="295.976" y="-0.018" fill="#3F90EB" width="4.063" height="4.062"/>
	<rect x="301.643" y="-0.018" fill="#3F90EB" width="4.063" height="4.062"/>
	<rect x="307.31" y="-0.018" fill="#3F90EB" width="4.062" height="4.062"/>
	<rect x="312.977" y="-0.018" fill="#3F90EB" width="4.062" height="4.062"/>
	<rect x="318.644" y="-0.018" fill="#3F90EB" width="4.062" height="4.062"/>
	<rect x="324.311" y="-0.018" fill="#3F90EB" width="4.062" height="4.062"/>
	<rect x="329.978" y="-0.018" fill="#3F90EB" width="4.062" height="4.062"/>
	<rect x="335.645" y="-0.018" fill="#3F90EB" width="4.062" height="4.062"/>
	<rect x="341.312" y="-0.018" fill="#3F90EB" width="4.062" height="4.062"/>
	<rect x="346.979" y="-0.018" fill="#3F90EB" width="4.062" height="4.062"/>
	<rect x="352.646" y="-0.018" fill="#3F90EB" width="4.062" height="4.062"/>
	<rect x="358.313" y="-0.018" fill="#3F90EB" width="4.062" height="4.062"/>
	<rect x="363.98" y="-0.018" fill="#3F90EB" width="4.062" height="4.062"/>
	<rect x="369.647" y="-0.018" fill="#3F90EB" width="4.063" height="4.062"/>
	<rect x="375.314" y="-0.018" fill="#3F90EB" width="4.062" height="4.062"/>
	<rect x="380.981" y="-0.018" fill="#3F90EB" width="4.063" height="4.062"/>
	<rect x="386.648" y="-0.018" fill="#3F90EB" width="4.063" height="4.062"/>
	<rect x="392.315" y="-0.018" fill="#3F90EB" width="4.063" height="4.062"/>
	<rect x="397.982" y="-0.018" fill="#3F90EB" width="4.063" height="4.062"/>
	<rect x="403.649" y="-0.018" fill="#3F90EB" width="4.063" height="4.062"/>
	<rect x="409.316" y="-0.018" fill="#3F90EB" width="4.063" height="4.062"/>
	<rect x="414.983" y="-0.018" fill="#3F90EB" width="4.063" height="4.062"/>
	<rect x="420.65" y="-0.018" fill="#3F90EB" width="4.063" height="4.062"/>
	<rect x="426.317" y="-0.018" fill="#3F90EB" width="4.063" height="4.062"/>
	<rect x="431.984" y="-0.018" fill="#3F90EB" width="4.063" height="4.062"/>
	<rect x="437.651" y="-0.018" fill="#3F90EB" width="4.063" height="4.062"/>
	<rect x="443.318" y="-0.018" fill="#3F90EB" width="4.063" height="4.062"/>
	<rect x="448.985" y="-0.018" fill="#3F90EB" width="4.063" height="4.062"/>
	<rect x="454.652" y="-0.018" fill="#3F90EB" width="4.063" height="4.062"/>
	<rect x="460.319" y="-0.018" fill="#3F90EB" width="4.063" height="4.062"/>
	<rect x="465.986" y="-0.018" fill="#3F90EB" width="4.063" height="4.062"/>
	<rect x="471.653" y="-0.018" fill="#3F90EB" width="4.063" height="4.062"/>
	<rect x="477.32" y="-0.018" fill="#3F90EB" width="4.063" height="4.062"/>
	<rect x="482.987" y="-0.018" fill="#3F90EB" width="4.063" height="4.062"/>
	<rect x="488.654" y="-0.018" fill="#3F90EB" width="4.063" height="4.062"/>
	<rect x="494.321" y="-0.018" fill="#3F90EB" width="4.063" height="4.062"/>
	<rect x="499.988" y="-0.018" fill="#3F90EB" width="4.063" height="4.062"/>
	<rect x="505.655" y="-0.018" fill="#3F90EB" width="4.063" height="4.062"/>
	<rect x="511.322" y="-0.018" fill="#3F90EB" width="4.062" height="4.062"/>
	<rect x="516.988" y="-0.018" fill="#3F90EB" width="4.062" height="4.062"/>
	<rect x="522.656" y="-0.018" fill="#3F90EB" width="4.062" height="4.062"/>
	<rect x="528.322" y="-0.018" fill="#3F90EB" width="4.062" height="4.062"/>
	<rect x="533.99" y="-0.018" fill="#3F90EB" width="4.062" height="4.062"/>
	<rect x="539.656" y="-0.018" fill="#3F90EB" width="4.062" height="4.062"/>
	<rect x="545.323" y="-0.018" fill="#3F90EB" width="4.062" height="4.062"/>
	<rect x="550.99" y="-0.018" fill="#3F90EB" width="4.062" height="4.062"/>
	<rect x="556.656" y="-0.018" fill="#3F90EB" width="4.062" height="4.062"/>
	<rect x="562.323" y="-0.018" fill="#3F90EB" width="4.062" height="4.062"/>
	<rect x="567.99" y="-0.018" fill="#3F90EB" width="4.062" height="4.062"/>
	<rect x="573.656" y="-0.018" fill="#3F90EB" width="4.062" height="4.062"/>
	<rect x="579.323" y="-0.018" fill="#3F90EB" width="4.062" height="4.062"/>
	<rect x="584.99" y="-0.018" fill="#3F90EB" width="4.062" height="4.062"/>
	<rect x="590.657" y="-0.018" fill="#3F90EB" width="4.062" height="4.062"/>
	<rect x="596.323" y="-0.018" fill="#3F90EB" width="4.062" height="4.062"/>
	<rect x="601.991" y="-0.018" fill="#3F90EB" width="4.062" height="4.062"/>
	<rect x="607.657" y="-0.018" fill="#3F90EB" width="4.062" height="4.062"/>
	<rect x="613.325" y="-0.018" fill="#3F90EB" width="4.062" height="4.062"/>
	<rect x="618.991" y="-0.018" fill="#3F90EB" width="4.062" height="4.062"/>
	<rect x="624.659" y="-0.018" fill="#3F90EB" width="4.062" height="4.062"/>
	<rect x="630.325" y="-0.018" fill="#3F90EB" width="4.062" height="4.062"/>
	<rect x="635.993" y="-0.018" fill="#3F90EB" width="4.062" height="4.062"/>
	<rect x="641.659" y="-0.018" fill="#3F90EB" width="4.062" height="4.062"/>
	<rect x="647.327" y="-0.018" fill="#3F90EB" width="4.062" height="4.062"/>
	<rect x="652.993" y="-0.018" fill="#3F90EB" width="4.062" height="4.062"/>
	<rect x="658.661" y="-0.018" fill="#3F90EB" width="4.062" height="4.062"/>
	<rect x="664.327" y="-0.018" fill="#3F90EB" width="4.062" height="4.062"/>
	<rect x="669.995" y="-0.018" fill="#3F90EB" width="4.062" height="4.062"/>
	<rect x="675.661" y="-0.018" fill="#3F90EB" width="4.062" height="4.062"/>
	<rect x="681.329" y="-0.018" fill="#3F90EB" width="4.062" height="4.062"/>
	<rect x="686.995" y="-0.018" fill="#3F90EB" width="4.062" height="4.062"/>
	<rect x="692.663" y="-0.018" fill="#3F90EB" width="4.062" height="4.062"/>
	<rect x="698.329" y="-0.018" fill="#3F90EB" width="4.062" height="4.062"/>
	<rect x="703.997" y="-0.018" fill="#3F90EB" width="4.062" height="4.062"/>
	<rect x="709.663" y="-0.018" fill="#3F90EB" width="4.062" height="4.062"/>
	<rect x="715.331" y="-0.018" fill="#3F90EB" width="4.062" height="4.062"/>
	<rect x="720.997" y="-0.018" fill="#3F90EB" width="4.062" height="4.062"/>
	<rect x="726.666" y="-0.018" fill="#3F90EB" width="4.062" height="4.062"/>
	<rect x="732.331" y="-0.018" fill="#3F90EB" width="4.062" height="4.062"/>
	<rect x="738" y="-0.018" fill="#3F90EB" width="4.062" height="4.062"/>
	<rect x="743.666" y="-0.018" fill="#3F90EB" width="4.062" height="4.062"/>
	<rect x="749.336" y="-0.018" fill="#3F90EB" width="4.062" height="4.062"/>
	<rect x="755" y="-0.018" fill="#3F90EB" width="4.062" height="4.062"/>
	<rect x="760.67" y="-0.018" fill="#3F90EB" width="4.062" height="4.062"/>
	<rect x="766.336" y="-0.018" fill="#3F90EB" width="4.062" height="4.062"/>
	<rect x="772.004" y="-0.018" fill="#3F90EB" width="4.062" height="4.062"/>
	<rect x="777.67" y="-0.018" fill="#3F90EB" width="4.062" height="4.062"/>
	<rect x="783.338" y="-0.018" fill="#3F90EB" width="4.062" height="4.062"/>
	<rect x="789.004" y="-0.018" fill="#3F90EB" width="4.062" height="4.062"/>
	<rect x="794.672" y="-0.018" fill="#3F90EB" width="4.062" height="4.062"/>
	<rect x="800.338" y="-0.018" fill="#3F90EB" width="4.062" height="4.062"/>
	<rect x="806.006" y="-0.018" fill="#3F90EB" width="4.062" height="4.062"/>
	<rect x="811.672" y="-0.018" fill="#3F90EB" width="4.062" height="4.062"/>
	<rect x="817.34" y="-0.018" fill="#3F90EB" width="4.062" height="4.062"/>
	<rect x="823.006" y="-0.018" fill="#3F90EB" width="4.062" height="4.062"/>
	<rect x="828.674" y="-0.018" fill="#3F90EB" width="4.062" height="4.062"/>
	<rect x="834.34" y="-0.018" fill="#3F90EB" width="4.062" height="4.062"/>
	<rect x="840.008" y="-0.018" fill="#3F90EB" width="4.062" height="4.062"/>
	<rect x="845.674" y="-0.018" fill="#3F90EB" width="4.062" height="4.062"/>
	<rect x="851.342" y="-0.018" fill="#3F90EB" width="4.062" height="4.062"/>
	<rect x="857.008" y="-0.018" fill="#3F90EB" width="4.062" height="4.062"/>
	<rect x="862.676" y="-0.018" fill="#3F90EB" width="4.062" height="4.062"/>
	<rect x="868.342" y="-0.018" fill="#3F90EB" width="4.062" height="4.062"/>
	<rect x="874.01" y="-0.018" fill="#3F90EB" width="4.062" height="4.062"/>
	<rect x="879.676" y="-0.018" fill="#3F90EB" width="4.062" height="4.062"/>
	<rect x="885.344" y="-0.018" fill="#3F90EB" width="4.062" height="4.062"/>
	<rect x="891.01" y="-0.018" fill="#3F90EB" width="4.062" height="4.062"/>
	<rect x="896.678" y="-0.018" fill="#3F90EB" width="4.062" height="4.062"/>
	<rect x="902.344" y="-0.018" fill="#3F90EB" width="4.062" height="4.062"/>
	<rect x="908.012" y="-0.018" fill="#3F90EB" width="4.062" height="4.062"/>
	<rect x="913.678" y="-0.018" fill="#3F90EB" width="4.062" height="4.062"/>
	<rect x="919.346" y="-0.018" fill="#3F90EB" width="4.062" height="4.062"/>
	<rect x="925.012" y="-0.018" fill="#3F90EB" width="4.062" height="4.062"/>
	<rect x="930.68" y="-0.018" fill="#3F90EB" width="4.062" height="4.062"/>
	<rect x="936.346" y="-0.018" fill="#3F90EB" width="4.062" height="4.062"/>
	<rect x="942.014" y="-0.018" fill="#3F90EB" width="4.062" height="4.062"/>
	<rect x="947.68" y="-0.018" fill="#3F90EB" width="4.062" height="4.062"/>
	<rect x="953.348" y="-0.018" fill="#3F90EB" width="4.062" height="4.062"/>
	<rect x="959.014" y="-0.018" fill="#3F90EB" width="4.062" height="4.062"/>
	<rect x="964.682" y="-0.018" fill="#3F90EB" width="4.062" height="4.062"/>
	<rect x="970.348" y="-0.018" fill="#3F90EB" width="4.062" height="4.062"/>
	<rect x="976.016" y="-0.018" fill="#3F90EB" width="4.062" height="4.062"/>
	<rect x="981.682" y="-0.018" fill="#3F90EB" width="4.062" height="4.062"/>
	<rect x="987.35" y="-0.018" fill="#3F90EB" width="4.062" height="4.062"/>
	<rect x="993.016" y="-0.018" fill="#3F90EB" width="4.062" height="4.062"/>
	<rect x="998.684" y="-0.018" fill="#3F90EB" width="4.062" height="4.062"/>
	<rect x="1004.35" y="-0.018" fill="#3F90EB" width="4.062" height="4.062"/>
	<rect x="1010.018" y="-0.018" fill="#3F90EB" width="4.062" height="4.062"/>
	<rect x="1015.684" y="-0.018" fill="#3F90EB" width="4.062" height="4.062"/>
</g>
<linearGradient id="SVGID_1_" gradientUnits="userSpaceOnUse" x1="25.0798" y1="-762.7952" x2="1049.0803" y2="-762.7952" gradientTransform="matrix(1 0 0 -1 -25.0796 -760.7817)">
	<stop  offset="0.1447" style="stop-color:#FFFFFF"/>
	<stop  offset="0.5" style="stop-color:#FFFFFF;stop-opacity:0"/>
	<stop  offset="0.9072" style="stop-color:#FFFFFF;stop-opacity:0.8915"/>
	<stop  offset="0.9568" style="stop-color:#FFFFFF"/>
</linearGradient>
<rect x="0" y="0.013" fill="url(#SVGID_1_)" width="1024" height="4"/>
</svg>
